<svg width="185" height="29" viewBox="0 0 185 29" fill="none" xmlns="http://www.w3.org/2000/svg">
<path d="M18 18.7656V4.98438C18 4.43887 17.5701 4 17.0357 4H3.85714C1.72768 4 0 5.76367 0 7.9375V21.0625C0 23.2363 1.72768 25 3.85714 25H17.0357C17.5701 25 18 24.5611 18 24.0156V23.3594C18 23.0518 17.8594 22.7729 17.6424 22.5924C17.4737 21.9607 17.4737 20.1602 17.6424 19.5285C17.8594 19.3521 18 19.0732 18 18.7656ZM5.14286 9.49609C5.14286 9.36074 5.25134 9.25 5.38393 9.25H13.9018C14.0344 9.25 14.1429 9.36074 14.1429 9.49609V10.3164C14.1429 10.4518 14.0344 10.5625 13.9018 10.5625H5.38393C5.25134 10.5625 5.14286 10.4518 5.14286 10.3164V9.49609ZM5.14286 12.1211C5.14286 11.9857 5.25134 11.875 5.38393 11.875H13.9018C14.0344 11.875 14.1429 11.9857 14.1429 12.1211V12.9414C14.1429 13.0768 14.0344 13.1875 13.9018 13.1875H5.38393C5.25134 13.1875 5.14286 13.0768 5.14286 12.9414V12.1211ZM15.3241 22.375H3.85714C3.14598 22.375 2.57143 21.7885 2.57143 21.0625C2.57143 20.3406 3.15 19.75 3.85714 19.75H15.3241C15.2478 20.4514 15.2478 21.6736 15.3241 22.375Z" fill="black"/>
<path d="M35.0665 8.288H29.3065V6.2H43.2025V8.288H37.4425V23H35.0665V8.288ZM51.9124 10.16C53.5284 10.16 54.8084 10.632 55.7524 11.576C56.7124 12.504 57.1924 13.872 57.1924 15.68V23H54.8884V15.944C54.8884 14.712 54.5924 13.784 54.0004 13.16C53.4084 12.536 52.5604 12.224 51.4564 12.224C50.2084 12.224 49.2244 12.592 48.5044 13.328C47.7844 14.048 47.4244 15.088 47.4244 16.448V23H45.1204V5.192H47.4244V12.08C47.9044 11.472 48.5284 11 49.2964 10.664C50.0804 10.328 50.9524 10.16 51.9124 10.16ZM72.6627 16.712C72.6627 16.888 72.6467 17.12 72.6147 17.408H62.2947C62.4387 18.528 62.9267 19.432 63.7587 20.12C64.6067 20.792 65.6547 21.128 66.9027 21.128C68.4227 21.128 69.6467 20.616 70.5747 19.592L71.8467 21.08C71.2707 21.752 70.5507 22.264 69.6867 22.616C68.8387 22.968 67.8867 23.144 66.8307 23.144C65.4867 23.144 64.2947 22.872 63.2547 22.328C62.2147 21.768 61.4067 20.992 60.8307 20C60.2707 19.008 59.9907 17.888 59.9907 16.64C59.9907 15.408 60.2627 14.296 60.8067 13.304C61.3667 12.312 62.1267 11.544 63.0867 11C64.0627 10.44 65.1587 10.16 66.3747 10.16C67.5907 10.16 68.6707 10.44 69.6147 11C70.5747 11.544 71.3187 12.312 71.8467 13.304C72.3907 14.296 72.6627 15.432 72.6627 16.712ZM66.3747 12.104C65.2707 12.104 64.3427 12.44 63.5907 13.112C62.8547 13.784 62.4227 14.664 62.2947 15.752H70.4547C70.3267 14.68 69.8867 13.808 69.1347 13.136C68.3987 12.448 67.4787 12.104 66.3747 12.104ZM93.2273 14.288C94.2033 14.56 94.9713 15.056 95.5313 15.776C96.0913 16.48 96.3713 17.376 96.3713 18.464C96.3713 19.92 95.8193 21.04 94.7153 21.824C93.6273 22.608 92.0353 23 89.9393 23H81.9233V6.2H89.4593C91.3793 6.2 92.8593 6.584 93.8993 7.352C94.9553 8.12 95.4833 9.184 95.4833 10.544C95.4833 11.424 95.2753 12.184 94.8593 12.824C94.4593 13.464 93.9153 13.952 93.2273 14.288ZM84.3233 8.144V13.52H89.2433C90.4753 13.52 91.4193 13.296 92.0753 12.848C92.7473 12.384 93.0833 11.712 93.0833 10.832C93.0833 9.952 92.7473 9.288 92.0753 8.84C91.4193 8.376 90.4753 8.144 89.2433 8.144H84.3233ZM89.8433 21.056C91.2033 21.056 92.2273 20.832 92.9153 20.384C93.6033 19.936 93.9473 19.232 93.9473 18.272C93.9473 16.4 92.5793 15.464 89.8433 15.464H84.3233V21.056H89.8433ZM104.839 23.144C103.575 23.144 102.439 22.864 101.431 22.304C100.423 21.744 99.6313 20.976 99.0553 20C98.4953 19.008 98.2153 17.888 98.2153 16.64C98.2153 15.392 98.4953 14.28 99.0553 13.304C99.6313 12.312 100.423 11.544 101.431 11C102.439 10.44 103.575 10.16 104.839 10.16C106.103 10.16 107.231 10.44 108.223 11C109.231 11.544 110.015 12.312 110.575 13.304C111.151 14.28 111.439 15.392 111.439 16.64C111.439 17.888 111.151 19.008 110.575 20C110.015 20.976 109.231 21.744 108.223 22.304C107.231 22.864 106.103 23.144 104.839 23.144ZM104.839 21.128C105.655 21.128 106.383 20.944 107.023 20.576C107.679 20.192 108.191 19.664 108.559 18.992C108.927 18.304 109.111 17.52 109.111 16.64C109.111 15.76 108.927 14.984 108.559 14.312C108.191 13.624 107.679 13.096 107.023 12.728C106.383 12.36 105.655 12.176 104.839 12.176C104.023 12.176 103.287 12.36 102.631 12.728C101.991 13.096 101.479 13.624 101.095 14.312C100.727 14.984 100.543 15.76 100.543 16.64C100.543 17.52 100.727 18.304 101.095 18.992C101.479 19.664 101.991 20.192 102.631 20.576C103.287 20.944 104.023 21.128 104.839 21.128ZM119.714 23.144C118.45 23.144 117.314 22.864 116.306 22.304C115.298 21.744 114.506 20.976 113.93 20C113.37 19.008 113.09 17.888 113.09 16.64C113.09 15.392 113.37 14.28 113.93 13.304C114.506 12.312 115.298 11.544 116.306 11C117.314 10.44 118.45 10.16 119.714 10.16C120.978 10.16 122.106 10.44 123.098 11C124.106 11.544 124.89 12.312 125.45 13.304C126.026 14.28 126.314 15.392 126.314 16.64C126.314 17.888 126.026 19.008 125.45 20C124.89 20.976 124.106 21.744 123.098 22.304C122.106 22.864 120.978 23.144 119.714 23.144ZM119.714 21.128C120.53 21.128 121.258 20.944 121.898 20.576C122.554 20.192 123.066 19.664 123.434 18.992C123.802 18.304 123.986 17.52 123.986 16.64C123.986 15.76 123.802 14.984 123.434 14.312C123.066 13.624 122.554 13.096 121.898 12.728C121.258 12.36 120.53 12.176 119.714 12.176C118.898 12.176 118.162 12.36 117.506 12.728C116.866 13.096 116.354 13.624 115.97 14.312C115.602 14.984 115.418 15.76 115.418 16.64C115.418 17.52 115.602 18.304 115.97 18.992C116.354 19.664 116.866 20.192 117.506 20.576C118.162 20.944 118.898 21.128 119.714 21.128ZM134.084 17.072L131.444 19.52V23H129.14V5.192H131.444V16.616L138.38 10.28H141.164L135.812 15.536L141.692 23H138.86L134.084 17.072ZM143.405 10.28H145.709V23H143.405V10.28ZM144.557 7.832C144.109 7.832 143.733 7.688 143.429 7.4C143.141 7.112 142.997 6.76 142.997 6.344C142.997 5.928 143.141 5.576 143.429 5.288C143.733 4.984 144.109 4.832 144.557 4.832C145.005 4.832 145.373 4.976 145.661 5.264C145.965 5.536 146.117 5.88 146.117 6.296C146.117 6.728 145.965 7.096 145.661 7.4C145.373 7.688 145.005 7.832 144.557 7.832ZM154.38 10.16C156.14 10.16 157.484 10.592 158.412 11.456C159.356 12.32 159.828 13.608 159.828 15.32V23H157.644V21.32C157.26 21.912 156.708 22.368 155.988 22.688C155.284 22.992 154.444 23.144 153.468 23.144C152.044 23.144 150.9 22.8 150.036 22.112C149.188 21.424 148.764 20.52 148.764 19.4C148.764 18.28 149.172 17.384 149.988 16.712C150.804 16.024 152.1 15.68 153.876 15.68H157.524V15.224C157.524 14.232 157.236 13.472 156.66 12.944C156.084 12.416 155.236 12.152 154.116 12.152C153.364 12.152 152.628 12.28 151.908 12.536C151.188 12.776 150.58 13.104 150.084 13.52L149.124 11.792C149.78 11.264 150.564 10.864 151.476 10.592C152.388 10.304 153.356 10.16 154.38 10.16ZM153.852 21.368C154.732 21.368 155.492 21.176 156.132 20.792C156.772 20.392 157.236 19.832 157.524 19.112V17.336H153.972C152.02 17.336 151.044 17.992 151.044 19.304C151.044 19.944 151.292 20.448 151.788 20.816C152.284 21.184 152.972 21.368 153.852 21.368ZM165.94 12.416C166.34 11.68 166.932 11.12 167.716 10.736C168.5 10.352 169.452 10.16 170.572 10.16V12.392C170.444 12.376 170.268 12.368 170.044 12.368C168.796 12.368 167.812 12.744 167.092 13.496C166.388 14.232 166.036 15.288 166.036 16.664V23H163.732V10.28H165.94V12.416ZM184.823 10.28L178.655 24.272C178.111 25.568 177.471 26.48 176.735 27.008C176.015 27.536 175.143 27.8 174.119 27.8C173.495 27.8 172.887 27.696 172.295 27.488C171.719 27.296 171.239 27.008 170.855 26.624L171.839 24.896C172.495 25.52 173.255 25.832 174.119 25.832C174.679 25.832 175.143 25.68 175.511 25.376C175.895 25.088 176.239 24.584 176.543 23.864L176.951 22.976L171.335 10.28H173.735L178.175 20.456L182.567 10.28H184.823Z" fill="black"/>
</svg>
