<svg width="156" height="96" viewBox="0 0 156 96" fill="none" xmlns="http://www.w3.org/2000/svg">
<path d="M104 40.0781V2.67188C104 1.19121 102.806 0 101.321 0H64.7143C58.7991 0 54 4.78711 54 10.6875V46.3125C54 52.2129 58.7991 57 64.7143 57H101.321C102.806 57 104 55.8088 104 54.3281V52.5469C104 51.7119 103.609 50.9549 103.007 50.465C102.538 48.7506 102.538 43.8633 103.007 42.1488C103.609 41.6701 104 40.9131 104 40.0781ZM68.2857 14.918C68.2857 14.5506 68.5871 14.25 68.9554 14.25H92.6161C92.9844 14.25 93.2857 14.5506 93.2857 14.918V17.1445C93.2857 17.5119 92.9844 17.8125 92.6161 17.8125H68.9554C68.5871 17.8125 68.2857 17.5119 68.2857 17.1445V14.918ZM68.2857 22.043C68.2857 21.6756 68.5871 21.375 68.9554 21.375H92.6161C92.9844 21.375 93.2857 21.6756 93.2857 22.043V24.2695C93.2857 24.6369 92.9844 24.9375 92.6161 24.9375H68.9554C68.5871 24.9375 68.2857 24.6369 68.2857 24.2695V22.043ZM96.567 49.875H64.7143C62.7388 49.875 61.1429 48.283 61.1429 46.3125C61.1429 44.3531 62.75 42.75 64.7143 42.75H96.567C96.3549 44.6537 96.3549 47.9713 96.567 49.875Z" fill="black"/>
<path d="M6.06647 75.288H0.306472V73.2H14.2025V75.288H8.44247V90H6.06647V75.288ZM22.9124 77.16C24.5284 77.16 25.8084 77.632 26.7524 78.576C27.7124 79.504 28.1924 80.872 28.1924 82.68V90H25.8884V82.944C25.8884 81.712 25.5924 80.784 25.0004 80.16C24.4084 79.536 23.5604 79.224 22.4564 79.224C21.2084 79.224 20.2244 79.592 19.5044 80.328C18.7844 81.048 18.4244 82.088 18.4244 83.448V90H16.1204V72.192H18.4244V79.08C18.9044 78.472 19.5284 78 20.2964 77.664C21.0804 77.328 21.9524 77.16 22.9124 77.16ZM43.6627 83.712C43.6627 83.888 43.6467 84.12 43.6147 84.408H33.2947C33.4387 85.528 33.9267 86.432 34.7587 87.12C35.6067 87.792 36.6547 88.128 37.9027 88.128C39.4227 88.128 40.6467 87.616 41.5747 86.592L42.8467 88.08C42.2707 88.752 41.5507 89.264 40.6867 89.616C39.8387 89.968 38.8867 90.144 37.8307 90.144C36.4867 90.144 35.2947 89.872 34.2547 89.328C33.2147 88.768 32.4067 87.992 31.8307 87C31.2707 86.008 30.9907 84.888 30.9907 83.64C30.9907 82.408 31.2627 81.296 31.8067 80.304C32.3667 79.312 33.1267 78.544 34.0867 78C35.0627 77.44 36.1587 77.16 37.3747 77.16C38.5907 77.16 39.6707 77.44 40.6147 78C41.5747 78.544 42.3187 79.312 42.8467 80.304C43.3907 81.296 43.6627 82.432 43.6627 83.712ZM37.3747 79.104C36.2707 79.104 35.3427 79.44 34.5907 80.112C33.8547 80.784 33.4227 81.664 33.2947 82.752H41.4547C41.3267 81.68 40.8867 80.808 40.1347 80.136C39.3987 79.448 38.4787 79.104 37.3747 79.104ZM64.2273 81.288C65.2033 81.56 65.9713 82.056 66.5313 82.776C67.0913 83.48 67.3713 84.376 67.3713 85.464C67.3713 86.92 66.8193 88.04 65.7153 88.824C64.6273 89.608 63.0353 90 60.9393 90H52.9233V73.2H60.4593C62.3793 73.2 63.8593 73.584 64.8993 74.352C65.9553 75.12 66.4833 76.184 66.4833 77.544C66.4833 78.424 66.2753 79.184 65.8593 79.824C65.4593 80.464 64.9153 80.952 64.2273 81.288ZM55.3233 75.144V80.52H60.2433C61.4753 80.52 62.4193 80.296 63.0753 79.848C63.7473 79.384 64.0833 78.712 64.0833 77.832C64.0833 76.952 63.7473 76.288 63.0753 75.84C62.4193 75.376 61.4753 75.144 60.2433 75.144H55.3233ZM60.8433 88.056C62.2033 88.056 63.2273 87.832 63.9153 87.384C64.6033 86.936 64.9473 86.232 64.9473 85.272C64.9473 83.4 63.5793 82.464 60.8433 82.464H55.3233V88.056H60.8433ZM75.8393 90.144C74.5753 90.144 73.4393 89.864 72.4313 89.304C71.4233 88.744 70.6313 87.976 70.0553 87C69.4953 86.008 69.2153 84.888 69.2153 83.64C69.2153 82.392 69.4953 81.28 70.0553 80.304C70.6313 79.312 71.4233 78.544 72.4313 78C73.4393 77.44 74.5753 77.16 75.8393 77.16C77.1033 77.16 78.2313 77.44 79.2233 78C80.2313 78.544 81.0153 79.312 81.5753 80.304C82.1513 81.28 82.4393 82.392 82.4393 83.64C82.4393 84.888 82.1513 86.008 81.5753 87C81.0153 87.976 80.2313 88.744 79.2233 89.304C78.2313 89.864 77.1033 90.144 75.8393 90.144ZM75.8393 88.128C76.6553 88.128 77.3833 87.944 78.0233 87.576C78.6793 87.192 79.1913 86.664 79.5593 85.992C79.9273 85.304 80.1113 84.52 80.1113 83.64C80.1113 82.76 79.9273 81.984 79.5593 81.312C79.1913 80.624 78.6793 80.096 78.0233 79.728C77.3833 79.36 76.6553 79.176 75.8393 79.176C75.0233 79.176 74.2873 79.36 73.6313 79.728C72.9913 80.096 72.4793 80.624 72.0953 81.312C71.7273 81.984 71.5433 82.76 71.5433 83.64C71.5433 84.52 71.7273 85.304 72.0953 85.992C72.4793 86.664 72.9913 87.192 73.6313 87.576C74.2873 87.944 75.0233 88.128 75.8393 88.128ZM90.7137 90.144C89.4497 90.144 88.3137 89.864 87.3057 89.304C86.2977 88.744 85.5057 87.976 84.9297 87C84.3697 86.008 84.0897 84.888 84.0897 83.64C84.0897 82.392 84.3697 81.28 84.9297 80.304C85.5057 79.312 86.2977 78.544 87.3057 78C88.3137 77.44 89.4497 77.16 90.7137 77.16C91.9777 77.16 93.1057 77.44 94.0977 78C95.1057 78.544 95.8897 79.312 96.4497 80.304C97.0257 81.28 97.3137 82.392 97.3137 83.64C97.3137 84.888 97.0257 86.008 96.4497 87C95.8897 87.976 95.1057 88.744 94.0977 89.304C93.1057 89.864 91.9777 90.144 90.7137 90.144ZM90.7137 88.128C91.5297 88.128 92.2577 87.944 92.8977 87.576C93.5537 87.192 94.0657 86.664 94.4337 85.992C94.8017 85.304 94.9857 84.52 94.9857 83.64C94.9857 82.76 94.8017 81.984 94.4337 81.312C94.0657 80.624 93.5537 80.096 92.8977 79.728C92.2577 79.36 91.5297 79.176 90.7137 79.176C89.8977 79.176 89.1617 79.36 88.5057 79.728C87.8657 80.096 87.3537 80.624 86.9697 81.312C86.6017 81.984 86.4177 82.76 86.4177 83.64C86.4177 84.52 86.6017 85.304 86.9697 85.992C87.3537 86.664 87.8657 87.192 88.5057 87.576C89.1617 87.944 89.8977 88.128 90.7137 88.128ZM105.084 84.072L102.444 86.52V90H100.14V72.192H102.444V83.616L109.38 77.28H112.164L106.812 82.536L112.692 90H109.86L105.084 84.072ZM114.405 77.28H116.709V90H114.405V77.28ZM115.557 74.832C115.109 74.832 114.733 74.688 114.429 74.4C114.141 74.112 113.997 73.76 113.997 73.344C113.997 72.928 114.141 72.576 114.429 72.288C114.733 71.984 115.109 71.832 115.557 71.832C116.005 71.832 116.373 71.976 116.661 72.264C116.965 72.536 117.117 72.88 117.117 73.296C117.117 73.728 116.965 74.096 116.661 74.4C116.373 74.688 116.005 74.832 115.557 74.832ZM125.38 77.16C127.14 77.16 128.484 77.592 129.412 78.456C130.356 79.32 130.828 80.608 130.828 82.32V90H128.644V88.32C128.26 88.912 127.708 89.368 126.988 89.688C126.284 89.992 125.444 90.144 124.468 90.144C123.044 90.144 121.9 89.8 121.036 89.112C120.188 88.424 119.764 87.52 119.764 86.4C119.764 85.28 120.172 84.384 120.988 83.712C121.804 83.024 123.1 82.68 124.876 82.68H128.524V82.224C128.524 81.232 128.236 80.472 127.66 79.944C127.084 79.416 126.236 79.152 125.116 79.152C124.364 79.152 123.628 79.28 122.908 79.536C122.188 79.776 121.58 80.104 121.084 80.52L120.124 78.792C120.78 78.264 121.564 77.864 122.476 77.592C123.388 77.304 124.356 77.16 125.38 77.16ZM124.852 88.368C125.732 88.368 126.492 88.176 127.132 87.792C127.772 87.392 128.236 86.832 128.524 86.112V84.336H124.972C123.02 84.336 122.044 84.992 122.044 86.304C122.044 86.944 122.292 87.448 122.788 87.816C123.284 88.184 123.972 88.368 124.852 88.368ZM136.94 79.416C137.34 78.68 137.932 78.12 138.716 77.736C139.5 77.352 140.452 77.16 141.572 77.16V79.392C141.444 79.376 141.268 79.368 141.044 79.368C139.796 79.368 138.812 79.744 138.092 80.496C137.388 81.232 137.036 82.288 137.036 83.664V90H134.732V77.28H136.94V79.416ZM155.823 77.28L149.655 91.272C149.111 92.568 148.471 93.48 147.735 94.008C147.015 94.536 146.143 94.8 145.119 94.8C144.495 94.8 143.887 94.696 143.295 94.488C142.719 94.296 142.239 94.008 141.855 93.624L142.839 91.896C143.495 92.52 144.255 92.832 145.119 92.832C145.679 92.832 146.143 92.68 146.511 92.376C146.895 92.088 147.239 91.584 147.543 90.864L147.951 89.976L142.335 77.28H144.735L149.175 87.456L153.567 77.28H155.823Z" fill="black"/>
</svg>
